<?xml version="1.0" encoding="utf-8" standalone="no"?>
<!DOCTYPE svg PUBLIC "-//W3C//DTD SVG 1.1//EN"
  "http://www.w3.org/Graphics/SVG/1.1/DTD/svg11.dtd">
<!-- Created with matplotlib (https://matplotlib.org/) -->
<svg height="288pt" version="1.1" viewBox="0 0 432 288" width="432pt" xmlns="http://www.w3.org/2000/svg" xmlns:xlink="http://www.w3.org/1999/xlink">
 <defs>
  <style type="text/css">
*{stroke-linecap:butt;stroke-linejoin:round;white-space:pre;}
  </style>
 </defs>
 <g id="figure_1">
  <g id="patch_1">
   <path d="M 0 288 
L 432 288 
L 432 0 
L 0 0 
z
" style="fill:#ffffff;"/>
  </g>
  <g id="axes_1">
   <g id="patch_2">
    <path d="M 54 252 
L 388.8 252 
L 388.8 34.56 
L 54 34.56 
z
" style="fill:#ffffff;"/>
   </g>
   <g id="PathCollection_1">
    <defs>
     <path d="M 0 3 
C 0.795609 3 1.55874 2.683901 2.12132 2.12132 
C 2.683901 1.55874 3 0.795609 3 0 
C 3 -0.795609 2.683901 -1.55874 2.12132 -2.12132 
C 1.55874 -2.683901 0.795609 -3 0 -3 
C -0.795609 -3 -1.55874 -2.683901 -2.12132 -2.12132 
C -2.683901 -1.55874 -3 -0.795609 -3 0 
C -3 0.795609 -2.683901 1.55874 -2.12132 2.12132 
C -1.55874 2.683901 -0.795609 3 0 3 
z
" id="C0_0_9b0984d94b"/>
    </defs>
    <g clip-path="url(#p2c84463de2)">
     <use style="fill:#1f77b4;stroke:#ffffff;stroke-width:0.75;" x="69.248479" xlink:href="#C0_0_9b0984d94b" y="242.115784"/>
    </g>
    <g clip-path="url(#p2c84463de2)">
     <use style="fill:#1f77b4;stroke:#ffffff;stroke-width:0.75;" x="72.322247" xlink:href="#C0_0_9b0984d94b" y="238.868377"/>
    </g>
    <g clip-path="url(#p2c84463de2)">
     <use style="fill:#1f77b4;stroke:#ffffff;stroke-width:0.75;" x="75.396015" xlink:href="#C0_0_9b0984d94b" y="237.149162"/>
    </g>
    <g clip-path="url(#p2c84463de2)">
     <use style="fill:#1f77b4;stroke:#ffffff;stroke-width:0.75;" x="78.469783" xlink:href="#C0_0_9b0984d94b" y="241.237074"/>
    </g>
    <g clip-path="url(#p2c84463de2)">
     <use style="fill:#1f77b4;stroke:#ffffff;stroke-width:0.75;" x="81.543551" xlink:href="#C0_0_9b0984d94b" y="240.740411"/>
    </g>
    <g clip-path="url(#p2c84463de2)">
     <use style="fill:#1f77b4;stroke:#ffffff;stroke-width:0.75;" x="84.617319" xlink:href="#C0_0_9b0984d94b" y="233.405092"/>
    </g>
    <g clip-path="url(#p2c84463de2)">
     <use style="fill:#1f77b4;stroke:#ffffff;stroke-width:0.75;" x="87.691087" xlink:href="#C0_0_9b0984d94b" y="233.596116"/>
    </g>
    <g clip-path="url(#p2c84463de2)">
     <use style="fill:#1f77b4;stroke:#ffffff;stroke-width:0.75;" x="90.764856" xlink:href="#C0_0_9b0984d94b" y="231.112805"/>
    </g>
    <g clip-path="url(#p2c84463de2)">
     <use style="fill:#1f77b4;stroke:#ffffff;stroke-width:0.75;" x="93.838624" xlink:href="#C0_0_9b0984d94b" y="221.714428"/>
    </g>
    <g clip-path="url(#p2c84463de2)">
     <use style="fill:#1f77b4;stroke:#ffffff;stroke-width:0.75;" x="96.912392" xlink:href="#C0_0_9b0984d94b" y="227.48335"/>
    </g>
    <g clip-path="url(#p2c84463de2)">
     <use style="fill:#1f77b4;stroke:#ffffff;stroke-width:0.75;" x="99.98616" xlink:href="#C0_0_9b0984d94b" y="222.287499"/>
    </g>
    <g clip-path="url(#p2c84463de2)">
     <use style="fill:#1f77b4;stroke:#ffffff;stroke-width:0.75;" x="103.059928" xlink:href="#C0_0_9b0984d94b" y="227.597965"/>
    </g>
    <g clip-path="url(#p2c84463de2)">
     <use style="fill:#1f77b4;stroke:#ffffff;stroke-width:0.75;" x="106.133696" xlink:href="#C0_0_9b0984d94b" y="228.285651"/>
    </g>
    <g clip-path="url(#p2c84463de2)">
     <use style="fill:#1f77b4;stroke:#ffffff;stroke-width:0.75;" x="109.207464" xlink:href="#C0_0_9b0984d94b" y="233.481502"/>
    </g>
    <g clip-path="url(#p2c84463de2)">
     <use style="fill:#1f77b4;stroke:#ffffff;stroke-width:0.75;" x="112.281232" xlink:href="#C0_0_9b0984d94b" y="219.42214"/>
    </g>
    <g clip-path="url(#p2c84463de2)">
     <use style="fill:#1f77b4;stroke:#ffffff;stroke-width:0.75;" x="115.355" xlink:href="#C0_0_9b0984d94b" y="207.464042"/>
    </g>
    <g clip-path="url(#p2c84463de2)">
     <use style="fill:#1f77b4;stroke:#ffffff;stroke-width:0.75;" x="118.428768" xlink:href="#C0_0_9b0984d94b" y="220.988537"/>
    </g>
    <g clip-path="url(#p2c84463de2)">
     <use style="fill:#1f77b4;stroke:#ffffff;stroke-width:0.75;" x="121.502537" xlink:href="#C0_0_9b0984d94b" y="231.915106"/>
    </g>
    <g clip-path="url(#p2c84463de2)">
     <use style="fill:#1f77b4;stroke:#ffffff;stroke-width:0.75;" x="124.576305" xlink:href="#C0_0_9b0984d94b" y="215.525252"/>
    </g>
    <g clip-path="url(#p2c84463de2)">
     <use style="fill:#1f77b4;stroke:#ffffff;stroke-width:0.75;" x="127.650073" xlink:href="#C0_0_9b0984d94b" y="223.051595"/>
    </g>
    <g clip-path="url(#p2c84463de2)">
     <use style="fill:#1f77b4;stroke:#ffffff;stroke-width:0.75;" x="130.723841" xlink:href="#C0_0_9b0984d94b" y="208.992234"/>
    </g>
    <g clip-path="url(#p2c84463de2)">
     <use style="fill:#1f77b4;stroke:#ffffff;stroke-width:0.75;" x="133.797609" xlink:href="#C0_0_9b0984d94b" y="193.977752"/>
    </g>
    <g clip-path="url(#p2c84463de2)">
     <use style="fill:#1f77b4;stroke:#ffffff;stroke-width:0.75;" x="136.871377" xlink:href="#C0_0_9b0984d94b" y="191.570851"/>
    </g>
    <g clip-path="url(#p2c84463de2)">
     <use style="fill:#1f77b4;stroke:#ffffff;stroke-width:0.75;" x="139.945145" xlink:href="#C0_0_9b0984d94b" y="222.784162"/>
    </g>
    <g clip-path="url(#p2c84463de2)">
     <use style="fill:#1f77b4;stroke:#ffffff;stroke-width:0.75;" x="143.018913" xlink:href="#C0_0_9b0984d94b" y="215.601662"/>
    </g>
    <g clip-path="url(#p2c84463de2)">
     <use style="fill:#1f77b4;stroke:#ffffff;stroke-width:0.75;" x="146.092681" xlink:href="#C0_0_9b0984d94b" y="216.365757"/>
    </g>
    <g clip-path="url(#p2c84463de2)">
     <use style="fill:#1f77b4;stroke:#ffffff;stroke-width:0.75;" x="149.16645" xlink:href="#C0_0_9b0984d94b" y="194.283391"/>
    </g>
    <g clip-path="url(#p2c84463de2)">
     <use style="fill:#1f77b4;stroke:#ffffff;stroke-width:0.75;" x="152.240218" xlink:href="#C0_0_9b0984d94b" y="190.348298"/>
    </g>
    <g clip-path="url(#p2c84463de2)">
     <use style="fill:#1f77b4;stroke:#ffffff;stroke-width:0.75;" x="155.313986" xlink:href="#C0_0_9b0984d94b" y="187.062686"/>
    </g>
    <g clip-path="url(#p2c84463de2)">
     <use style="fill:#1f77b4;stroke:#ffffff;stroke-width:0.75;" x="158.387754" xlink:href="#C0_0_9b0984d94b" y="186.718843"/>
    </g>
    <g clip-path="url(#p2c84463de2)">
     <use style="fill:#1f77b4;stroke:#ffffff;stroke-width:0.75;" x="161.461522" xlink:href="#C0_0_9b0984d94b" y="168.189521"/>
    </g>
    <g clip-path="url(#p2c84463de2)">
     <use style="fill:#1f77b4;stroke:#ffffff;stroke-width:0.75;" x="164.53529" xlink:href="#C0_0_9b0984d94b" y="200.205133"/>
    </g>
    <g clip-path="url(#p2c84463de2)">
     <use style="fill:#1f77b4;stroke:#ffffff;stroke-width:0.75;" x="167.609058" xlink:href="#C0_0_9b0984d94b" y="186.948071"/>
    </g>
    <g clip-path="url(#p2c84463de2)">
     <use style="fill:#1f77b4;stroke:#ffffff;stroke-width:0.75;" x="170.682826" xlink:href="#C0_0_9b0984d94b" y="188.590877"/>
    </g>
    <g clip-path="url(#p2c84463de2)">
     <use style="fill:#1f77b4;stroke:#ffffff;stroke-width:0.75;" x="173.756594" xlink:href="#C0_0_9b0984d94b" y="198.485917"/>
    </g>
    <g clip-path="url(#p2c84463de2)">
     <use style="fill:#1f77b4;stroke:#ffffff;stroke-width:0.75;" x="176.830362" xlink:href="#C0_0_9b0984d94b" y="215.066795"/>
    </g>
    <g clip-path="url(#p2c84463de2)">
     <use style="fill:#1f77b4;stroke:#ffffff;stroke-width:0.75;" x="179.904131" xlink:href="#C0_0_9b0984d94b" y="177.244056"/>
    </g>
    <g clip-path="url(#p2c84463de2)">
     <use style="fill:#1f77b4;stroke:#ffffff;stroke-width:0.75;" x="182.977899" xlink:href="#C0_0_9b0984d94b" y="204.675093"/>
    </g>
    <g clip-path="url(#p2c84463de2)">
     <use style="fill:#1f77b4;stroke:#ffffff;stroke-width:0.75;" x="186.051667" xlink:href="#C0_0_9b0984d94b" y="172.544867"/>
    </g>
    <g clip-path="url(#p2c84463de2)">
     <use style="fill:#1f77b4;stroke:#ffffff;stroke-width:0.75;" x="189.125435" xlink:href="#C0_0_9b0984d94b" y="188.743696"/>
    </g>
    <g clip-path="url(#p2c84463de2)">
     <use style="fill:#1f77b4;stroke:#ffffff;stroke-width:0.75;" x="192.199203" xlink:href="#C0_0_9b0984d94b" y="163.795971"/>
    </g>
    <g clip-path="url(#p2c84463de2)">
     <use style="fill:#1f77b4;stroke:#ffffff;stroke-width:0.75;" x="195.272971" xlink:href="#C0_0_9b0984d94b" y="165.133138"/>
    </g>
    <g clip-path="url(#p2c84463de2)">
     <use style="fill:#1f77b4;stroke:#ffffff;stroke-width:0.75;" x="198.346739" xlink:href="#C0_0_9b0984d94b" y="174.837154"/>
    </g>
    <g clip-path="url(#p2c84463de2)">
     <use style="fill:#1f77b4;stroke:#ffffff;stroke-width:0.75;" x="201.420507" xlink:href="#C0_0_9b0984d94b" y="155.772965"/>
    </g>
    <g clip-path="url(#p2c84463de2)">
     <use style="fill:#1f77b4;stroke:#ffffff;stroke-width:0.75;" x="204.494275" xlink:href="#C0_0_9b0984d94b" y="169.144641"/>
    </g>
    <g clip-path="url(#p2c84463de2)">
     <use style="fill:#1f77b4;stroke:#ffffff;stroke-width:0.75;" x="207.568044" xlink:href="#C0_0_9b0984d94b" y="213.882446"/>
    </g>
    <g clip-path="url(#p2c84463de2)">
     <use style="fill:#1f77b4;stroke:#ffffff;stroke-width:0.75;" x="210.641812" xlink:href="#C0_0_9b0984d94b" y="202.955877"/>
    </g>
    <g clip-path="url(#p2c84463de2)">
     <use style="fill:#1f77b4;stroke:#ffffff;stroke-width:0.75;" x="213.71558" xlink:href="#C0_0_9b0984d94b" y="182.554521"/>
    </g>
    <g clip-path="url(#p2c84463de2)">
     <use style="fill:#1f77b4;stroke:#ffffff;stroke-width:0.75;" x="216.789348" xlink:href="#C0_0_9b0984d94b" y="163.490332"/>
    </g>
    <g clip-path="url(#p2c84463de2)">
     <use style="fill:#1f77b4;stroke:#ffffff;stroke-width:0.75;" x="219.863116" xlink:href="#C0_0_9b0984d94b" y="187.330119"/>
    </g>
    <g clip-path="url(#p2c84463de2)">
     <use style="fill:#1f77b4;stroke:#ffffff;stroke-width:0.75;" x="222.936884" xlink:href="#C0_0_9b0984d94b" y="166.241077"/>
    </g>
    <g clip-path="url(#p2c84463de2)">
     <use style="fill:#1f77b4;stroke:#ffffff;stroke-width:0.75;" x="226.010652" xlink:href="#C0_0_9b0984d94b" y="168.533364"/>
    </g>
    <g clip-path="url(#p2c84463de2)">
     <use style="fill:#1f77b4;stroke:#ffffff;stroke-width:0.75;" x="229.08442" xlink:href="#C0_0_9b0984d94b" y="166.011848"/>
    </g>
    <g clip-path="url(#p2c84463de2)">
     <use style="fill:#1f77b4;stroke:#ffffff;stroke-width:0.75;" x="232.158188" xlink:href="#C0_0_9b0984d94b" y="158.332686"/>
    </g>
    <g clip-path="url(#p2c84463de2)">
     <use style="fill:#1f77b4;stroke:#ffffff;stroke-width:0.75;" x="235.231956" xlink:href="#C0_0_9b0984d94b" y="160.128311"/>
    </g>
    <g clip-path="url(#p2c84463de2)">
     <use style="fill:#1f77b4;stroke:#ffffff;stroke-width:0.75;" x="238.305725" xlink:href="#C0_0_9b0984d94b" y="127.807061"/>
    </g>
    <g clip-path="url(#p2c84463de2)">
     <use style="fill:#1f77b4;stroke:#ffffff;stroke-width:0.75;" x="241.379493" xlink:href="#C0_0_9b0984d94b" y="138.351582"/>
    </g>
    <g clip-path="url(#p2c84463de2)">
     <use style="fill:#1f77b4;stroke:#ffffff;stroke-width:0.75;" x="244.453261" xlink:href="#C0_0_9b0984d94b" y="145.419468"/>
    </g>
    <g clip-path="url(#p2c84463de2)">
     <use style="fill:#1f77b4;stroke:#ffffff;stroke-width:0.75;" x="247.527029" xlink:href="#C0_0_9b0984d94b" y="144.426144"/>
    </g>
    <g clip-path="url(#p2c84463de2)">
     <use style="fill:#1f77b4;stroke:#ffffff;stroke-width:0.75;" x="250.600797" xlink:href="#C0_0_9b0984d94b" y="123.337101"/>
    </g>
    <g clip-path="url(#p2c84463de2)">
     <use style="fill:#1f77b4;stroke:#ffffff;stroke-width:0.75;" x="253.674565" xlink:href="#C0_0_9b0984d94b" y="138.73363"/>
    </g>
    <g clip-path="url(#p2c84463de2)">
     <use style="fill:#1f77b4;stroke:#ffffff;stroke-width:0.75;" x="256.748333" xlink:href="#C0_0_9b0984d94b" y="130.634216"/>
    </g>
    <g clip-path="url(#p2c84463de2)">
     <use style="fill:#1f77b4;stroke:#ffffff;stroke-width:0.75;" x="259.822101" xlink:href="#C0_0_9b0984d94b" y="124.941702"/>
    </g>
    <g clip-path="url(#p2c84463de2)">
     <use style="fill:#1f77b4;stroke:#ffffff;stroke-width:0.75;" x="262.895869" xlink:href="#C0_0_9b0984d94b" y="130.74883"/>
    </g>
    <g clip-path="url(#p2c84463de2)">
     <use style="fill:#1f77b4;stroke:#ffffff;stroke-width:0.75;" x="265.969638" xlink:href="#C0_0_9b0984d94b" y="107.825958"/>
    </g>
    <g clip-path="url(#p2c84463de2)">
     <use style="fill:#1f77b4;stroke:#ffffff;stroke-width:0.75;" x="269.043406" xlink:href="#C0_0_9b0984d94b" y="112.448737"/>
    </g>
    <g clip-path="url(#p2c84463de2)">
     <use style="fill:#1f77b4;stroke:#ffffff;stroke-width:0.75;" x="272.117174" xlink:href="#C0_0_9b0984d94b" y="129.946529"/>
    </g>
    <g clip-path="url(#p2c84463de2)">
     <use style="fill:#1f77b4;stroke:#ffffff;stroke-width:0.75;" x="275.190942" xlink:href="#C0_0_9b0984d94b" y="112.334123"/>
    </g>
    <g clip-path="url(#p2c84463de2)">
     <use style="fill:#1f77b4;stroke:#ffffff;stroke-width:0.75;" x="278.26471" xlink:href="#C0_0_9b0984d94b" y="191.876489"/>
    </g>
    <g clip-path="url(#p2c84463de2)">
     <use style="fill:#1f77b4;stroke:#ffffff;stroke-width:0.75;" x="281.338478" xlink:href="#C0_0_9b0984d94b" y="121.541476"/>
    </g>
    <g clip-path="url(#p2c84463de2)">
     <use style="fill:#1f77b4;stroke:#ffffff;stroke-width:0.75;" x="284.412246" xlink:href="#C0_0_9b0984d94b" y="84.712062"/>
    </g>
    <g clip-path="url(#p2c84463de2)">
     <use style="fill:#1f77b4;stroke:#ffffff;stroke-width:0.75;" x="287.486014" xlink:href="#C0_0_9b0984d94b" y="136.326729"/>
    </g>
    <g clip-path="url(#p2c84463de2)">
     <use style="fill:#1f77b4;stroke:#ffffff;stroke-width:0.75;" x="290.559782" xlink:href="#C0_0_9b0984d94b" y="131.245492"/>
    </g>
    <g clip-path="url(#p2c84463de2)">
     <use style="fill:#1f77b4;stroke:#ffffff;stroke-width:0.75;" x="293.63355" xlink:href="#C0_0_9b0984d94b" y="119.593032"/>
    </g>
    <g clip-path="url(#p2c84463de2)">
     <use style="fill:#1f77b4;stroke:#ffffff;stroke-width:0.75;" x="296.707319" xlink:href="#C0_0_9b0984d94b" y="110.805931"/>
    </g>
    <g clip-path="url(#p2c84463de2)">
     <use style="fill:#1f77b4;stroke:#ffffff;stroke-width:0.75;" x="299.781087" xlink:href="#C0_0_9b0984d94b" y="103.317793"/>
    </g>
    <g clip-path="url(#p2c84463de2)">
     <use style="fill:#1f77b4;stroke:#ffffff;stroke-width:0.75;" x="302.854855" xlink:href="#C0_0_9b0984d94b" y="113.060014"/>
    </g>
    <g clip-path="url(#p2c84463de2)">
     <use style="fill:#1f77b4;stroke:#ffffff;stroke-width:0.75;" x="305.928623" xlink:href="#C0_0_9b0984d94b" y="110.805931"/>
    </g>
    <g clip-path="url(#p2c84463de2)">
     <use style="fill:#1f77b4;stroke:#ffffff;stroke-width:0.75;" x="309.002391" xlink:href="#C0_0_9b0984d94b" y="88.150492"/>
    </g>
    <g clip-path="url(#p2c84463de2)">
     <use style="fill:#1f77b4;stroke:#ffffff;stroke-width:0.75;" x="312.076159" xlink:href="#C0_0_9b0984d94b" y="144.273324"/>
    </g>
    <g clip-path="url(#p2c84463de2)">
     <use style="fill:#1f77b4;stroke:#ffffff;stroke-width:0.75;" x="315.149927" xlink:href="#C0_0_9b0984d94b" y="140.949508"/>
    </g>
    <g clip-path="url(#p2c84463de2)">
     <use style="fill:#1f77b4;stroke:#ffffff;stroke-width:0.75;" x="318.223695" xlink:href="#C0_0_9b0984d94b" y="129.831915"/>
    </g>
    <g clip-path="url(#p2c84463de2)">
     <use style="fill:#1f77b4;stroke:#ffffff;stroke-width:0.75;" x="321.297463" xlink:href="#C0_0_9b0984d94b" y="68.666051"/>
    </g>
    <g clip-path="url(#p2c84463de2)">
     <use style="fill:#1f77b4;stroke:#ffffff;stroke-width:0.75;" x="324.371232" xlink:href="#C0_0_9b0984d94b" y="108.016982"/>
    </g>
    <g clip-path="url(#p2c84463de2)">
     <use style="fill:#1f77b4;stroke:#ffffff;stroke-width:0.75;" x="327.445" xlink:href="#C0_0_9b0984d94b" y="120.662766"/>
    </g>
    <g clip-path="url(#p2c84463de2)">
     <use style="fill:#1f77b4;stroke:#ffffff;stroke-width:0.75;" x="330.518768" xlink:href="#C0_0_9b0984d94b" y="91.894562"/>
    </g>
    <g clip-path="url(#p2c84463de2)">
     <use style="fill:#1f77b4;stroke:#ffffff;stroke-width:0.75;" x="333.592536" xlink:href="#C0_0_9b0984d94b" y="44.444216"/>
    </g>
    <g clip-path="url(#p2c84463de2)">
     <use style="fill:#1f77b4;stroke:#ffffff;stroke-width:0.75;" x="336.666304" xlink:href="#C0_0_9b0984d94b" y="55.256171"/>
    </g>
    <g clip-path="url(#p2c84463de2)">
     <use style="fill:#1f77b4;stroke:#ffffff;stroke-width:0.75;" x="339.740072" xlink:href="#C0_0_9b0984d94b" y="125.438364"/>
    </g>
    <g clip-path="url(#p2c84463de2)">
     <use style="fill:#1f77b4;stroke:#ffffff;stroke-width:0.75;" x="342.81384" xlink:href="#C0_0_9b0984d94b" y="72.219096"/>
    </g>
    <g clip-path="url(#p2c84463de2)">
     <use style="fill:#1f77b4;stroke:#ffffff;stroke-width:0.75;" x="345.887608" xlink:href="#C0_0_9b0984d94b" y="83.680532"/>
    </g>
    <g clip-path="url(#p2c84463de2)">
     <use style="fill:#1f77b4;stroke:#ffffff;stroke-width:0.75;" x="348.961376" xlink:href="#C0_0_9b0984d94b" y="54.568485"/>
    </g>
    <g clip-path="url(#p2c84463de2)">
     <use style="fill:#1f77b4;stroke:#ffffff;stroke-width:0.75;" x="352.035144" xlink:href="#C0_0_9b0984d94b" y="78.064429"/>
    </g>
    <g clip-path="url(#p2c84463de2)">
     <use style="fill:#1f77b4;stroke:#ffffff;stroke-width:0.75;" x="355.108913" xlink:href="#C0_0_9b0984d94b" y="77.300333"/>
    </g>
    <g clip-path="url(#p2c84463de2)">
     <use style="fill:#1f77b4;stroke:#ffffff;stroke-width:0.75;" x="358.182681" xlink:href="#C0_0_9b0984d94b" y="78.599296"/>
    </g>
    <g clip-path="url(#p2c84463de2)">
     <use style="fill:#1f77b4;stroke:#ffffff;stroke-width:0.75;" x="361.256449" xlink:href="#C0_0_9b0984d94b" y="79.363391"/>
    </g>
    <g clip-path="url(#p2c84463de2)">
     <use style="fill:#1f77b4;stroke:#ffffff;stroke-width:0.75;" x="364.330217" xlink:href="#C0_0_9b0984d94b" y="70.232447"/>
    </g>
    <g clip-path="url(#p2c84463de2)">
     <use style="fill:#1f77b4;stroke:#ffffff;stroke-width:0.75;" x="367.403985" xlink:href="#C0_0_9b0984d94b" y="112.945399"/>
    </g>
    <g clip-path="url(#p2c84463de2)">
     <use style="fill:#1f77b4;stroke:#ffffff;stroke-width:0.75;" x="370.477753" xlink:href="#C0_0_9b0984d94b" y="58.771011"/>
    </g>
    <g clip-path="url(#p2c84463de2)">
     <use style="fill:#1f77b4;stroke:#ffffff;stroke-width:0.75;" x="373.551521" xlink:href="#C0_0_9b0984d94b" y="54.683099"/>
    </g>
   </g>
   <g id="PathCollection_2"/>
   <g id="PathCollection_3"/>
   <g id="matplotlib.axis_1">
    <g id="xtick_1">
     <g id="line2d_1">
      <defs>
       <path d="M 0 0 
L 0 3.5 
" id="mb0ca30e17d" style="stroke:#000000;stroke-width:0.8;"/>
      </defs>
      <g>
       <use style="stroke:#000000;stroke-width:0.8;" x="60.027175" xlink:href="#mb0ca30e17d" y="252"/>
      </g>
     </g>
     <g id="text_1">
      <!-- 0 -->
      <defs>
       <path d="M 31.78125 66.40625 
Q 24.171875 66.40625 20.328125 58.90625 
Q 16.5 51.421875 16.5 36.375 
Q 16.5 21.390625 20.328125 13.890625 
Q 24.171875 6.390625 31.78125 6.390625 
Q 39.453125 6.390625 43.28125 13.890625 
Q 47.125 21.390625 47.125 36.375 
Q 47.125 51.421875 43.28125 58.90625 
Q 39.453125 66.40625 31.78125 66.40625 
z
M 31.78125 74.21875 
Q 44.046875 74.21875 50.515625 64.515625 
Q 56.984375 54.828125 56.984375 36.375 
Q 56.984375 17.96875 50.515625 8.265625 
Q 44.046875 -1.421875 31.78125 -1.421875 
Q 19.53125 -1.421875 13.0625 8.265625 
Q 6.59375 17.96875 6.59375 36.375 
Q 6.59375 54.828125 13.0625 64.515625 
Q 19.53125 74.21875 31.78125 74.21875 
z
" id="DejaVuSans-48"/>
      </defs>
      <g transform="translate(56.845925 266.598437)scale(0.1 -0.1)">
       <use xlink:href="#DejaVuSans-48"/>
      </g>
     </g>
    </g>
    <g id="xtick_2">
     <g id="line2d_2">
      <g>
       <use style="stroke:#000000;stroke-width:0.8;" x="121.502537" xlink:href="#mb0ca30e17d" y="252"/>
      </g>
     </g>
     <g id="text_2">
      <!-- 20 -->
      <defs>
       <path d="M 19.1875 8.296875 
L 53.609375 8.296875 
L 53.609375 0 
L 7.328125 0 
L 7.328125 8.296875 
Q 12.9375 14.109375 22.625 23.890625 
Q 32.328125 33.6875 34.8125 36.53125 
Q 39.546875 41.84375 41.421875 45.53125 
Q 43.3125 49.21875 43.3125 52.78125 
Q 43.3125 58.59375 39.234375 62.25 
Q 35.15625 65.921875 28.609375 65.921875 
Q 23.96875 65.921875 18.8125 64.3125 
Q 13.671875 62.703125 7.8125 59.421875 
L 7.8125 69.390625 
Q 13.765625 71.78125 18.9375 73 
Q 24.125 74.21875 28.421875 74.21875 
Q 39.75 74.21875 46.484375 68.546875 
Q 53.21875 62.890625 53.21875 53.421875 
Q 53.21875 48.921875 51.53125 44.890625 
Q 49.859375 40.875 45.40625 35.40625 
Q 44.1875 33.984375 37.640625 27.21875 
Q 31.109375 20.453125 19.1875 8.296875 
z
" id="DejaVuSans-50"/>
      </defs>
      <g transform="translate(115.140037 266.598437)scale(0.1 -0.1)">
       <use xlink:href="#DejaVuSans-50"/>
       <use x="63.623047" xlink:href="#DejaVuSans-48"/>
      </g>
     </g>
    </g>
    <g id="xtick_3">
     <g id="line2d_3">
      <g>
       <use style="stroke:#000000;stroke-width:0.8;" x="182.977899" xlink:href="#mb0ca30e17d" y="252"/>
      </g>
     </g>
     <g id="text_3">
      <!-- 40 -->
      <defs>
       <path d="M 37.796875 64.3125 
L 12.890625 25.390625 
L 37.796875 25.390625 
z
M 35.203125 72.90625 
L 47.609375 72.90625 
L 47.609375 25.390625 
L 58.015625 25.390625 
L 58.015625 17.1875 
L 47.609375 17.1875 
L 47.609375 0 
L 37.796875 0 
L 37.796875 17.1875 
L 4.890625 17.1875 
L 4.890625 26.703125 
z
" id="DejaVuSans-52"/>
      </defs>
      <g transform="translate(176.615399 266.598437)scale(0.1 -0.1)">
       <use xlink:href="#DejaVuSans-52"/>
       <use x="63.623047" xlink:href="#DejaVuSans-48"/>
      </g>
     </g>
    </g>
    <g id="xtick_4">
     <g id="line2d_4">
      <g>
       <use style="stroke:#000000;stroke-width:0.8;" x="244.453261" xlink:href="#mb0ca30e17d" y="252"/>
      </g>
     </g>
     <g id="text_4">
      <!-- 60 -->
      <defs>
       <path d="M 33.015625 40.375 
Q 26.375 40.375 22.484375 35.828125 
Q 18.609375 31.296875 18.609375 23.390625 
Q 18.609375 15.53125 22.484375 10.953125 
Q 26.375 6.390625 33.015625 6.390625 
Q 39.65625 6.390625 43.53125 10.953125 
Q 47.40625 15.53125 47.40625 23.390625 
Q 47.40625 31.296875 43.53125 35.828125 
Q 39.65625 40.375 33.015625 40.375 
z
M 52.59375 71.296875 
L 52.59375 62.3125 
Q 48.875 64.0625 45.09375 64.984375 
Q 41.3125 65.921875 37.59375 65.921875 
Q 27.828125 65.921875 22.671875 59.328125 
Q 17.53125 52.734375 16.796875 39.40625 
Q 19.671875 43.65625 24.015625 45.921875 
Q 28.375 48.1875 33.59375 48.1875 
Q 44.578125 48.1875 50.953125 41.515625 
Q 57.328125 34.859375 57.328125 23.390625 
Q 57.328125 12.15625 50.6875 5.359375 
Q 44.046875 -1.421875 33.015625 -1.421875 
Q 20.359375 -1.421875 13.671875 8.265625 
Q 6.984375 17.96875 6.984375 36.375 
Q 6.984375 53.65625 15.1875 63.9375 
Q 23.390625 74.21875 37.203125 74.21875 
Q 40.921875 74.21875 44.703125 73.484375 
Q 48.484375 72.75 52.59375 71.296875 
z
" id="DejaVuSans-54"/>
      </defs>
      <g transform="translate(238.090761 266.598437)scale(0.1 -0.1)">
       <use xlink:href="#DejaVuSans-54"/>
       <use x="63.623047" xlink:href="#DejaVuSans-48"/>
      </g>
     </g>
    </g>
    <g id="xtick_5">
     <g id="line2d_5">
      <g>
       <use style="stroke:#000000;stroke-width:0.8;" x="305.928623" xlink:href="#mb0ca30e17d" y="252"/>
      </g>
     </g>
     <g id="text_5">
      <!-- 80 -->
      <defs>
       <path d="M 31.78125 34.625 
Q 24.75 34.625 20.71875 30.859375 
Q 16.703125 27.09375 16.703125 20.515625 
Q 16.703125 13.921875 20.71875 10.15625 
Q 24.75 6.390625 31.78125 6.390625 
Q 38.8125 6.390625 42.859375 10.171875 
Q 46.921875 13.96875 46.921875 20.515625 
Q 46.921875 27.09375 42.890625 30.859375 
Q 38.875 34.625 31.78125 34.625 
z
M 21.921875 38.8125 
Q 15.578125 40.375 12.03125 44.71875 
Q 8.5 49.078125 8.5 55.328125 
Q 8.5 64.0625 14.71875 69.140625 
Q 20.953125 74.21875 31.78125 74.21875 
Q 42.671875 74.21875 48.875 69.140625 
Q 55.078125 64.0625 55.078125 55.328125 
Q 55.078125 49.078125 51.53125 44.71875 
Q 48 40.375 41.703125 38.8125 
Q 48.828125 37.15625 52.796875 32.3125 
Q 56.78125 27.484375 56.78125 20.515625 
Q 56.78125 9.90625 50.3125 4.234375 
Q 43.84375 -1.421875 31.78125 -1.421875 
Q 19.734375 -1.421875 13.25 4.234375 
Q 6.78125 9.90625 6.78125 20.515625 
Q 6.78125 27.484375 10.78125 32.3125 
Q 14.796875 37.15625 21.921875 38.8125 
z
M 18.3125 54.390625 
Q 18.3125 48.734375 21.84375 45.5625 
Q 25.390625 42.390625 31.78125 42.390625 
Q 38.140625 42.390625 41.71875 45.5625 
Q 45.3125 48.734375 45.3125 54.390625 
Q 45.3125 60.0625 41.71875 63.234375 
Q 38.140625 66.40625 31.78125 66.40625 
Q 25.390625 66.40625 21.84375 63.234375 
Q 18.3125 60.0625 18.3125 54.390625 
z
" id="DejaVuSans-56"/>
      </defs>
      <g transform="translate(299.566123 266.598437)scale(0.1 -0.1)">
       <use xlink:href="#DejaVuSans-56"/>
       <use x="63.623047" xlink:href="#DejaVuSans-48"/>
      </g>
     </g>
    </g>
    <g id="xtick_6">
     <g id="line2d_6">
      <g>
       <use style="stroke:#000000;stroke-width:0.8;" x="367.403985" xlink:href="#mb0ca30e17d" y="252"/>
      </g>
     </g>
     <g id="text_6">
      <!-- 100 -->
      <defs>
       <path d="M 12.40625 8.296875 
L 28.515625 8.296875 
L 28.515625 63.921875 
L 10.984375 60.40625 
L 10.984375 69.390625 
L 28.421875 72.90625 
L 38.28125 72.90625 
L 38.28125 8.296875 
L 54.390625 8.296875 
L 54.390625 0 
L 12.40625 0 
z
" id="DejaVuSans-49"/>
      </defs>
      <g transform="translate(357.860235 266.598437)scale(0.1 -0.1)">
       <use xlink:href="#DejaVuSans-49"/>
       <use x="63.623047" xlink:href="#DejaVuSans-48"/>
       <use x="127.246094" xlink:href="#DejaVuSans-48"/>
      </g>
     </g>
    </g>
    <g id="text_7">
     <!-- n -->
     <defs>
      <path d="M 54.890625 33.015625 
L 54.890625 0 
L 45.90625 0 
L 45.90625 32.71875 
Q 45.90625 40.484375 42.875 44.328125 
Q 39.84375 48.1875 33.796875 48.1875 
Q 26.515625 48.1875 22.3125 43.546875 
Q 18.109375 38.921875 18.109375 30.90625 
L 18.109375 0 
L 9.078125 0 
L 9.078125 54.6875 
L 18.109375 54.6875 
L 18.109375 46.1875 
Q 21.34375 51.125 25.703125 53.5625 
Q 30.078125 56 35.796875 56 
Q 45.21875 56 50.046875 50.171875 
Q 54.890625 44.34375 54.890625 33.015625 
z
" id="DejaVuSans-110"/>
     </defs>
     <g transform="translate(218.23125 280.276563)scale(0.1 -0.1)">
      <use xlink:href="#DejaVuSans-110"/>
     </g>
    </g>
   </g>
   <g id="matplotlib.axis_2">
    <g id="ytick_1">
     <g id="line2d_7">
      <defs>
       <path d="M 0 0 
L -3.5 0 
" id="m1c1589a510" style="stroke:#000000;stroke-width:0.8;"/>
      </defs>
      <g>
       <use style="stroke:#000000;stroke-width:0.8;" x="54" xlink:href="#m1c1589a510" y="245.019348"/>
      </g>
     </g>
     <g id="text_8">
      <!-- 0 -->
      <g transform="translate(40.6375 248.818566)scale(0.1 -0.1)">
       <use xlink:href="#DejaVuSans-48"/>
      </g>
     </g>
    </g>
    <g id="ytick_2">
     <g id="line2d_8">
      <g>
       <use style="stroke:#000000;stroke-width:0.8;" x="54" xlink:href="#m1c1589a510" y="206.814561"/>
      </g>
     </g>
     <g id="text_9">
      <!-- 1000 -->
      <g transform="translate(21.55 210.613779)scale(0.1 -0.1)">
       <use xlink:href="#DejaVuSans-49"/>
       <use x="63.623047" xlink:href="#DejaVuSans-48"/>
       <use x="127.246094" xlink:href="#DejaVuSans-48"/>
       <use x="190.869141" xlink:href="#DejaVuSans-48"/>
      </g>
     </g>
    </g>
    <g id="ytick_3">
     <g id="line2d_9">
      <g>
       <use style="stroke:#000000;stroke-width:0.8;" x="54" xlink:href="#m1c1589a510" y="168.609774"/>
      </g>
     </g>
     <g id="text_10">
      <!-- 2000 -->
      <g transform="translate(21.55 172.408992)scale(0.1 -0.1)">
       <use xlink:href="#DejaVuSans-50"/>
       <use x="63.623047" xlink:href="#DejaVuSans-48"/>
       <use x="127.246094" xlink:href="#DejaVuSans-48"/>
       <use x="190.869141" xlink:href="#DejaVuSans-48"/>
      </g>
     </g>
    </g>
    <g id="ytick_4">
     <g id="line2d_10">
      <g>
       <use style="stroke:#000000;stroke-width:0.8;" x="54" xlink:href="#m1c1589a510" y="130.404987"/>
      </g>
     </g>
     <g id="text_11">
      <!-- 3000 -->
      <defs>
       <path d="M 40.578125 39.3125 
Q 47.65625 37.796875 51.625 33 
Q 55.609375 28.21875 55.609375 21.1875 
Q 55.609375 10.40625 48.1875 4.484375 
Q 40.765625 -1.421875 27.09375 -1.421875 
Q 22.515625 -1.421875 17.65625 -0.515625 
Q 12.796875 0.390625 7.625 2.203125 
L 7.625 11.71875 
Q 11.71875 9.328125 16.59375 8.109375 
Q 21.484375 6.890625 26.8125 6.890625 
Q 36.078125 6.890625 40.9375 10.546875 
Q 45.796875 14.203125 45.796875 21.1875 
Q 45.796875 27.640625 41.28125 31.265625 
Q 36.765625 34.90625 28.71875 34.90625 
L 20.21875 34.90625 
L 20.21875 43.015625 
L 29.109375 43.015625 
Q 36.375 43.015625 40.234375 45.921875 
Q 44.09375 48.828125 44.09375 54.296875 
Q 44.09375 59.90625 40.109375 62.90625 
Q 36.140625 65.921875 28.71875 65.921875 
Q 24.65625 65.921875 20.015625 65.03125 
Q 15.375 64.15625 9.8125 62.3125 
L 9.8125 71.09375 
Q 15.4375 72.65625 20.34375 73.4375 
Q 25.25 74.21875 29.59375 74.21875 
Q 40.828125 74.21875 47.359375 69.109375 
Q 53.90625 64.015625 53.90625 55.328125 
Q 53.90625 49.265625 50.4375 45.09375 
Q 46.96875 40.921875 40.578125 39.3125 
z
" id="DejaVuSans-51"/>
      </defs>
      <g transform="translate(21.55 134.204206)scale(0.1 -0.1)">
       <use xlink:href="#DejaVuSans-51"/>
       <use x="63.623047" xlink:href="#DejaVuSans-48"/>
       <use x="127.246094" xlink:href="#DejaVuSans-48"/>
       <use x="190.869141" xlink:href="#DejaVuSans-48"/>
      </g>
     </g>
    </g>
    <g id="ytick_5">
     <g id="line2d_11">
      <g>
       <use style="stroke:#000000;stroke-width:0.8;" x="54" xlink:href="#m1c1589a510" y="92.2002"/>
      </g>
     </g>
     <g id="text_12">
      <!-- 4000 -->
      <g transform="translate(21.55 95.999419)scale(0.1 -0.1)">
       <use xlink:href="#DejaVuSans-52"/>
       <use x="63.623047" xlink:href="#DejaVuSans-48"/>
       <use x="127.246094" xlink:href="#DejaVuSans-48"/>
       <use x="190.869141" xlink:href="#DejaVuSans-48"/>
      </g>
     </g>
    </g>
    <g id="ytick_6">
     <g id="line2d_12">
      <g>
       <use style="stroke:#000000;stroke-width:0.8;" x="54" xlink:href="#m1c1589a510" y="53.995413"/>
      </g>
     </g>
     <g id="text_13">
      <!-- 5000 -->
      <defs>
       <path d="M 10.796875 72.90625 
L 49.515625 72.90625 
L 49.515625 64.59375 
L 19.828125 64.59375 
L 19.828125 46.734375 
Q 21.96875 47.46875 24.109375 47.828125 
Q 26.265625 48.1875 28.421875 48.1875 
Q 40.625 48.1875 47.75 41.5 
Q 54.890625 34.8125 54.890625 23.390625 
Q 54.890625 11.625 47.5625 5.09375 
Q 40.234375 -1.421875 26.90625 -1.421875 
Q 22.3125 -1.421875 17.546875 -0.640625 
Q 12.796875 0.140625 7.71875 1.703125 
L 7.71875 11.625 
Q 12.109375 9.234375 16.796875 8.0625 
Q 21.484375 6.890625 26.703125 6.890625 
Q 35.15625 6.890625 40.078125 11.328125 
Q 45.015625 15.765625 45.015625 23.390625 
Q 45.015625 31 40.078125 35.4375 
Q 35.15625 39.890625 26.703125 39.890625 
Q 22.75 39.890625 18.8125 39.015625 
Q 14.890625 38.140625 10.796875 36.28125 
z
" id="DejaVuSans-53"/>
      </defs>
      <g transform="translate(21.55 57.794632)scale(0.1 -0.1)">
       <use xlink:href="#DejaVuSans-53"/>
       <use x="63.623047" xlink:href="#DejaVuSans-48"/>
       <use x="127.246094" xlink:href="#DejaVuSans-48"/>
       <use x="190.869141" xlink:href="#DejaVuSans-48"/>
      </g>
     </g>
    </g>
    <g id="text_14">
     <!-- costos -->
     <defs>
      <path d="M 48.78125 52.59375 
L 48.78125 44.1875 
Q 44.96875 46.296875 41.140625 47.34375 
Q 37.3125 48.390625 33.40625 48.390625 
Q 24.65625 48.390625 19.8125 42.84375 
Q 14.984375 37.3125 14.984375 27.296875 
Q 14.984375 17.28125 19.8125 11.734375 
Q 24.65625 6.203125 33.40625 6.203125 
Q 37.3125 6.203125 41.140625 7.25 
Q 44.96875 8.296875 48.78125 10.40625 
L 48.78125 2.09375 
Q 45.015625 0.34375 40.984375 -0.53125 
Q 36.96875 -1.421875 32.421875 -1.421875 
Q 20.0625 -1.421875 12.78125 6.34375 
Q 5.515625 14.109375 5.515625 27.296875 
Q 5.515625 40.671875 12.859375 48.328125 
Q 20.21875 56 33.015625 56 
Q 37.15625 56 41.109375 55.140625 
Q 45.0625 54.296875 48.78125 52.59375 
z
" id="DejaVuSans-99"/>
      <path d="M 30.609375 48.390625 
Q 23.390625 48.390625 19.1875 42.75 
Q 14.984375 37.109375 14.984375 27.296875 
Q 14.984375 17.484375 19.15625 11.84375 
Q 23.34375 6.203125 30.609375 6.203125 
Q 37.796875 6.203125 41.984375 11.859375 
Q 46.1875 17.53125 46.1875 27.296875 
Q 46.1875 37.015625 41.984375 42.703125 
Q 37.796875 48.390625 30.609375 48.390625 
z
M 30.609375 56 
Q 42.328125 56 49.015625 48.375 
Q 55.71875 40.765625 55.71875 27.296875 
Q 55.71875 13.875 49.015625 6.21875 
Q 42.328125 -1.421875 30.609375 -1.421875 
Q 18.84375 -1.421875 12.171875 6.21875 
Q 5.515625 13.875 5.515625 27.296875 
Q 5.515625 40.765625 12.171875 48.375 
Q 18.84375 56 30.609375 56 
z
" id="DejaVuSans-111"/>
      <path d="M 44.28125 53.078125 
L 44.28125 44.578125 
Q 40.484375 46.53125 36.375 47.5 
Q 32.28125 48.484375 27.875 48.484375 
Q 21.1875 48.484375 17.84375 46.4375 
Q 14.5 44.390625 14.5 40.28125 
Q 14.5 37.15625 16.890625 35.375 
Q 19.28125 33.59375 26.515625 31.984375 
L 29.59375 31.296875 
Q 39.15625 29.25 43.1875 25.515625 
Q 47.21875 21.78125 47.21875 15.09375 
Q 47.21875 7.46875 41.1875 3.015625 
Q 35.15625 -1.421875 24.609375 -1.421875 
Q 20.21875 -1.421875 15.453125 -0.5625 
Q 10.6875 0.296875 5.421875 2 
L 5.421875 11.28125 
Q 10.40625 8.6875 15.234375 7.390625 
Q 20.0625 6.109375 24.8125 6.109375 
Q 31.15625 6.109375 34.5625 8.28125 
Q 37.984375 10.453125 37.984375 14.40625 
Q 37.984375 18.0625 35.515625 20.015625 
Q 33.0625 21.96875 24.703125 23.78125 
L 21.578125 24.515625 
Q 13.234375 26.265625 9.515625 29.90625 
Q 5.8125 33.546875 5.8125 39.890625 
Q 5.8125 47.609375 11.28125 51.796875 
Q 16.75 56 26.8125 56 
Q 31.78125 56 36.171875 55.265625 
Q 40.578125 54.546875 44.28125 53.078125 
z
" id="DejaVuSans-115"/>
      <path d="M 18.3125 70.21875 
L 18.3125 54.6875 
L 36.8125 54.6875 
L 36.8125 47.703125 
L 18.3125 47.703125 
L 18.3125 18.015625 
Q 18.3125 11.328125 20.140625 9.421875 
Q 21.96875 7.515625 27.59375 7.515625 
L 36.8125 7.515625 
L 36.8125 0 
L 27.59375 0 
Q 17.1875 0 13.234375 3.875 
Q 9.28125 7.765625 9.28125 18.015625 
L 9.28125 47.703125 
L 2.6875 47.703125 
L 2.6875 54.6875 
L 9.28125 54.6875 
L 9.28125 70.21875 
z
" id="DejaVuSans-116"/>
     </defs>
     <g transform="translate(15.470312 159.3175)rotate(-90)scale(0.1 -0.1)">
      <use xlink:href="#DejaVuSans-99"/>
      <use x="54.980469" xlink:href="#DejaVuSans-111"/>
      <use x="116.162109" xlink:href="#DejaVuSans-115"/>
      <use x="168.261719" xlink:href="#DejaVuSans-116"/>
      <use x="207.470703" xlink:href="#DejaVuSans-111"/>
      <use x="268.652344" xlink:href="#DejaVuSans-115"/>
     </g>
    </g>
   </g>
   <g id="patch_3">
    <path d="M 54 252 
L 54 34.56 
" style="fill:none;stroke:#000000;stroke-linecap:square;stroke-linejoin:miter;stroke-width:0.8;"/>
   </g>
   <g id="patch_4">
    <path d="M 388.8 252 
L 388.8 34.56 
" style="fill:none;stroke:#000000;stroke-linecap:square;stroke-linejoin:miter;stroke-width:0.8;"/>
   </g>
   <g id="patch_5">
    <path d="M 54 252 
L 388.8 252 
" style="fill:none;stroke:#000000;stroke-linecap:square;stroke-linejoin:miter;stroke-width:0.8;"/>
   </g>
   <g id="patch_6">
    <path d="M 54 34.56 
L 388.8 34.56 
" style="fill:none;stroke:#000000;stroke-linecap:square;stroke-linejoin:miter;stroke-width:0.8;"/>
   </g>
   <g id="legend_1">
    <g id="patch_7">
     <path d="M 61 71.91625 
L 131.4 71.91625 
Q 133.4 71.91625 133.4 69.91625 
L 133.4 41.56 
Q 133.4 39.56 131.4 39.56 
L 61 39.56 
Q 59 39.56 59 41.56 
L 59 69.91625 
Q 59 71.91625 61 71.91625 
z
" style="fill:#ffffff;opacity:0.8;stroke:#cccccc;stroke-linejoin:miter;"/>
    </g>
    <g id="PathCollection_4">
     <defs>
      <path id="mc71d8283c2" style="stroke:#ffffff;stroke-width:1.5;"/>
     </defs>
     <g>
      <use style="fill:#ffffff;stroke:#ffffff;stroke-width:1.5;" x="73" xlink:href="#mc71d8283c2" y="48.533437"/>
     </g>
    </g>
    <g id="text_15">
     <!-- metodo -->
     <defs>
      <path d="M 52 44.1875 
Q 55.375 50.25 60.0625 53.125 
Q 64.75 56 71.09375 56 
Q 79.640625 56 84.28125 50.015625 
Q 88.921875 44.046875 88.921875 33.015625 
L 88.921875 0 
L 79.890625 0 
L 79.890625 32.71875 
Q 79.890625 40.578125 77.09375 44.375 
Q 74.3125 48.1875 68.609375 48.1875 
Q 61.625 48.1875 57.5625 43.546875 
Q 53.515625 38.921875 53.515625 30.90625 
L 53.515625 0 
L 44.484375 0 
L 44.484375 32.71875 
Q 44.484375 40.625 41.703125 44.40625 
Q 38.921875 48.1875 33.109375 48.1875 
Q 26.21875 48.1875 22.15625 43.53125 
Q 18.109375 38.875 18.109375 30.90625 
L 18.109375 0 
L 9.078125 0 
L 9.078125 54.6875 
L 18.109375 54.6875 
L 18.109375 46.1875 
Q 21.1875 51.21875 25.484375 53.609375 
Q 29.78125 56 35.6875 56 
Q 41.65625 56 45.828125 52.96875 
Q 50 49.953125 52 44.1875 
z
" id="DejaVuSans-109"/>
      <path d="M 56.203125 29.59375 
L 56.203125 25.203125 
L 14.890625 25.203125 
Q 15.484375 15.921875 20.484375 11.0625 
Q 25.484375 6.203125 34.421875 6.203125 
Q 39.59375 6.203125 44.453125 7.46875 
Q 49.3125 8.734375 54.109375 11.28125 
L 54.109375 2.78125 
Q 49.265625 0.734375 44.1875 -0.34375 
Q 39.109375 -1.421875 33.890625 -1.421875 
Q 20.796875 -1.421875 13.15625 6.1875 
Q 5.515625 13.8125 5.515625 26.8125 
Q 5.515625 40.234375 12.765625 48.109375 
Q 20.015625 56 32.328125 56 
Q 43.359375 56 49.78125 48.890625 
Q 56.203125 41.796875 56.203125 29.59375 
z
M 47.21875 32.234375 
Q 47.125 39.59375 43.09375 43.984375 
Q 39.0625 48.390625 32.421875 48.390625 
Q 24.90625 48.390625 20.390625 44.140625 
Q 15.875 39.890625 15.1875 32.171875 
z
" id="DejaVuSans-101"/>
      <path d="M 45.40625 46.390625 
L 45.40625 75.984375 
L 54.390625 75.984375 
L 54.390625 0 
L 45.40625 0 
L 45.40625 8.203125 
Q 42.578125 3.328125 38.25 0.953125 
Q 33.9375 -1.421875 27.875 -1.421875 
Q 17.96875 -1.421875 11.734375 6.484375 
Q 5.515625 14.40625 5.515625 27.296875 
Q 5.515625 40.1875 11.734375 48.09375 
Q 17.96875 56 27.875 56 
Q 33.9375 56 38.25 53.625 
Q 42.578125 51.265625 45.40625 46.390625 
z
M 14.796875 27.296875 
Q 14.796875 17.390625 18.875 11.75 
Q 22.953125 6.109375 30.078125 6.109375 
Q 37.203125 6.109375 41.296875 11.75 
Q 45.40625 17.390625 45.40625 27.296875 
Q 45.40625 37.203125 41.296875 42.84375 
Q 37.203125 48.484375 30.078125 48.484375 
Q 22.953125 48.484375 18.875 42.84375 
Q 14.796875 37.203125 14.796875 27.296875 
z
" id="DejaVuSans-100"/>
     </defs>
     <g transform="translate(91 51.158437)scale(0.1 -0.1)">
      <use xlink:href="#DejaVuSans-109"/>
      <use x="97.412109" xlink:href="#DejaVuSans-101"/>
      <use x="158.935547" xlink:href="#DejaVuSans-116"/>
      <use x="198.144531" xlink:href="#DejaVuSans-111"/>
      <use x="259.326172" xlink:href="#DejaVuSans-100"/>
      <use x="322.802734" xlink:href="#DejaVuSans-111"/>
     </g>
    </g>
    <g id="PathCollection_5">
     <defs>
      <path d="M 0 3 
C 0.795609 3 1.55874 2.683901 2.12132 2.12132 
C 2.683901 1.55874 3 0.795609 3 0 
C 3 -0.795609 2.683901 -1.55874 2.12132 -2.12132 
C 1.55874 -2.683901 0.795609 -3 0 -3 
C -0.795609 -3 -1.55874 -2.683901 -2.12132 -2.12132 
C -2.683901 -1.55874 -3 -0.795609 -3 0 
C -3 0.795609 -2.683901 1.55874 -2.12132 2.12132 
C -1.55874 2.683901 -0.795609 3 0 3 
z
" id="m6f1190cdea" style="stroke:#1f77b4;"/>
     </defs>
     <g>
      <use style="fill:#1f77b4;stroke:#1f77b4;" x="73" xlink:href="#m6f1190cdea" y="63.211562"/>
     </g>
    </g>
    <g id="text_16">
     <!-- ins -->
     <defs>
      <path d="M 9.421875 54.6875 
L 18.40625 54.6875 
L 18.40625 0 
L 9.421875 0 
z
M 9.421875 75.984375 
L 18.40625 75.984375 
L 18.40625 64.59375 
L 9.421875 64.59375 
z
" id="DejaVuSans-105"/>
     </defs>
     <g transform="translate(91 65.836562)scale(0.1 -0.1)">
      <use xlink:href="#DejaVuSans-105"/>
      <use x="27.783203" xlink:href="#DejaVuSans-110"/>
      <use x="91.162109" xlink:href="#DejaVuSans-115"/>
     </g>
    </g>
   </g>
  </g>
 </g>
 <defs>
  <clipPath id="p2c84463de2">
   <rect height="217.44" width="334.8" x="54" y="34.56"/>
  </clipPath>
 </defs>
</svg>
